<svg viewBox="0 0 116.61 116.49" xmlns="http://www.w3.org/2000/svg" fill="#2271b3" role="img" aria-label="FEFU.One">
  <path d="m44.25,68.19c13.14-9.35,16.51-27.43,7.62-40.89l-15.36-23.08c-3.86,1.56-7.61,3.54-11.18,5.99C-1.22,28.42-7.99,64.71,10.22,91.27c.18.27.38.52.56.78l33.47-23.87Z" />
  <path d="m55.05,25.13c9.35,13.14,27.43,16.51,40.89,7.62l10.71-7.06c-.08-.12-.16-.25-.24-.37C91.27,3.25,63.65-5.13,39.5,3.11l15.55,22.01Z" />
  <path d="m98.11,35.92c-13.14,9.35-16.51,27.43-7.62,40.89l12.39,19.08c15.72-18.62,18.45-45.69,5.57-67.34l-10.34,7.37Z" />
  <path d="m114.44,116.49l-27.12-37.51c-9.35-13.14-27.43-16.51-40.89-7.62l-34.25,22.57c7.36,9.55,17.18,16.24,27.96,19.77,6.04,1.98,12.4,2.83,18.77,2.77l-.03.02h55.58Z" />
</svg>
